<svg height="480pt" viewBox="0 0 480 480" width="480pt" xmlns="http://www.w3.org/2000/svg"><g fill="#ffbc05"><path d="m24 104h48v32h-48c-8.835938 0-16-7.164062-16-16s7.164062-16 16-16zm0 0"/><path d="m24 184h48v32h-48c-8.835938 0-16-7.164062-16-16s7.164062-16 16-16zm0 0"/><path d="m24 264h48v32h-48c-8.835938 0-16-7.164062-16-16s7.164062-16 16-16zm0 0"/><path d="m24 344h48v32h-48c-8.835938 0-16-7.164062-16-16s7.164062-16 16-16zm0 0"/><path d="m456 104h-48v32h48c8.835938 0 16-7.164062 16-16s-7.164062-16-16-16zm0 0"/><path d="m456 184h-48v32h48c8.835938 0 16-7.164062 16-16s-7.164062-16-16-16zm0 0"/><path d="m456 264h-48v32h48c8.835938 0 16-7.164062 16-16s-7.164062-16-16-16zm0 0"/><path d="m456 344h-48v32h48c8.835938 0 16-7.164062 16-16s-7.164062-16-16-16zm0 0"/><path d="m104 72v-48c0-8.835938 7.164062-16 16-16s16 7.164062 16 16v48zm0 0"/><path d="m184 72v-48c0-8.835938 7.164062-16 16-16s16 7.164062 16 16v48zm0 0"/><path d="m264 72v-48c0-8.835938 7.164062-16 16-16s16 7.164062 16 16v48zm0 0"/><path d="m344 72v-48c0-8.835938 7.164062-16 16-16s16 7.164062 16 16v48zm0 0"/><path d="m104 408v48c0 8.835938 7.164062 16 16 16s16-7.164062 16-16v-48zm0 0"/><path d="m184 408v48c0 8.835938 7.164062 16 16 16s16-7.164062 16-16v-48zm0 0"/><path d="m264 408v48c0 8.835938 7.164062 16 16 16s16-7.164062 16-16v-48zm0 0"/><path d="m344 408v48c0 8.835938 7.164062 16 16 16s16-7.164062 16-16v-48zm0 0"/></g><path d="m72 56h336c8.835938 0 16 7.164062 16 16v336c0 8.835938-7.164062 16-16 16h-336c-8.835938 0-16-7.164062-16-16v-336c0-8.835938 7.164062-16 16-16zm0 0" fill="#95d441"/><path d="m136 104h208c17.671875 0 32 14.328125 32 32v208c0 17.671875-14.328125 32-32 32h-26.742188c-8.492187 0-16.632812-3.371094-22.632812-9.375l-22.625-22.625h-64l-22.625 22.625c-6 6.003906-14.140625 9.375-22.632812 9.375h-26.742188c-17.671875 0-32-14.328125-32-32v-208c0-17.671875 14.328125-32 32-32zm0 0" fill="#dce1ea"/><path d="m136 136h208v208h-208zm0 0" fill="#9196a9"/><path d="m344 96h-208c-22.082031.027344-39.972656 17.917969-40 40v208c.027344 22.082031 17.917969 39.972656 40 40h26.742188c10.617187.027344 20.804687-4.191406 28.289062-11.71875l20.28125-20.28125h57.375l20.28125 20.28125c7.484375 7.527344 17.671875 11.746094 28.289062 11.71875h26.742188c22.082031-.027344 39.972656-17.917969 40-40v-208c-.027344-22.082031-17.917969-39.972656-40-40zm-200 240v-192h192v192zm224 8c0 13.253906-10.746094 24-24 24h-26.742188c-6.371093.019531-12.484374-2.515625-16.976562-7.03125l-8.96875-8.96875h52.6875c4.417969 0 8-3.582031 8-8v-208c0-4.417969-3.582031-8-8-8h-208c-4.417969 0-8 3.582031-8 8v208c0 4.417969 3.582031 8 8 8h52.6875l-8.96875 8.96875c-4.492188 4.515625-10.605469 7.050781-16.976562 7.03125h-26.742188c-13.253906 0-24-10.746094-24-24v-208c0-13.253906 10.746094-24 24-24h208c13.253906 0 24 10.746094 24 24zm0 0"/><path d="m456 144c13.253906 0 24-10.746094 24-24s-10.746094-24-24-24h-24v-24c0-13.253906-10.746094-24-24-24h-24v-24c0-13.253906-10.746094-24-24-24s-24 10.746094-24 24v24h-32v-24c0-13.253906-10.746094-24-24-24s-24 10.746094-24 24v24h-32v-24c0-13.253906-10.746094-24-24-24s-24 10.746094-24 24v24h-32v-24c0-13.253906-10.746094-24-24-24s-24 10.746094-24 24v24h-24c-13.253906 0-24 10.746094-24 24v24h-24c-13.253906 0-24 10.746094-24 24s10.746094 24 24 24h24v32h-24c-13.253906 0-24 10.746094-24 24s10.746094 24 24 24h24v32h-24c-13.253906 0-24 10.746094-24 24s10.746094 24 24 24h24v32h-24c-13.253906 0-24 10.746094-24 24s10.746094 24 24 24h24v24c0 13.253906 10.746094 24 24 24h24v24c0 13.253906 10.746094 24 24 24s24-10.746094 24-24v-24h32v24c0 13.253906 10.746094 24 24 24s24-10.746094 24-24v-24h32v24c0 13.253906 10.746094 24 24 24s24-10.746094 24-24v-24h32v24c0 13.253906 10.746094 24 24 24s24-10.746094 24-24v-24h24c13.253906 0 24-10.746094 24-24v-24h24c13.253906 0 24-10.746094 24-24s-10.746094-24-24-24h-24v-32h24c13.253906 0 24-10.746094 24-24s-10.746094-24-24-24h-24v-32h24c13.253906 0 24-10.746094 24-24s-10.746094-24-24-24h-24v-32zm0-32c4.417969 0 8 3.582031 8 8s-3.582031 8-8 8h-24v-16zm-104-88c0-4.417969 3.582031-8 8-8s8 3.582031 8 8v24h-16zm-80 0c0-4.417969 3.582031-8 8-8s8 3.582031 8 8v24h-16zm-80 0c0-4.417969 3.582031-8 8-8s8 3.582031 8 8v24h-16zm-80 0c0-4.417969 3.582031-8 8-8s8 3.582031 8 8v24h-16zm-88 104c-4.417969 0-8-3.582031-8-8s3.582031-8 8-8h24v16zm0 80c-4.417969 0-8-3.582031-8-8s3.582031-8 8-8h24v16zm0 80c-4.417969 0-8-3.582031-8-8s3.582031-8 8-8h24v16zm0 80c-4.417969 0-8-3.582031-8-8s3.582031-8 8-8h24v16zm104 88c0 4.417969-3.582031 8-8 8s-8-3.582031-8-8v-24h16zm80 0c0 4.417969-3.582031 8-8 8s-8-3.582031-8-8v-24h16zm80 0c0 4.417969-3.582031 8-8 8s-8-3.582031-8-8v-24h16zm80 0c0 4.417969-3.582031 8-8 8s-8-3.582031-8-8v-24h16zm48-48c0 4.417969-3.582031 8-8 8h-336c-4.417969 0-8-3.582031-8-8v-336c0-4.417969 3.582031-8 8-8h336c4.417969 0 8 3.582031 8 8zm40-56c4.417969 0 8 3.582031 8 8s-3.582031 8-8 8h-24v-16zm0-80c4.417969 0 8 3.582031 8 8s-3.582031 8-8 8h-24v-16zm0-80c4.417969 0 8 3.582031 8 8s-3.582031 8-8 8h-24v-16zm0 0"/></svg>