<svg id="Capa_1" enable-background="new 0 0 512 512" height="512" viewBox="0 0 512 512" width="512" xmlns="http://www.w3.org/2000/svg"><g><path d="m379.799 254.805v32.958l.629.252c36.685 14.67 60.39 49.68 60.39 89.19 0 52.947-43.076 96.023-96.024 96.023-16.331 0-32.464-4.179-46.657-12.085l-.227-.126h-48.841c23.349 26.635 57.605 43.482 95.725 43.482 70.191 0 127.295-57.104 127.295-127.295 0-58.054-39.066-107.155-92.29-122.399z" fill="#d8ecfe"/><path d="m247.769 377.205c0-53.585 43.439-97.025 97.024-97.025 12.723 0 24.872 2.453 36.006 6.905v-163.086l-116.499-116.499h-219.19c-2.871 0-5.199 2.328-5.199 5.199v444.119c0 2.871 2.328 5.199 5.199 5.199h252.54c-29.752-16.572-49.881-48.339-49.881-84.812z" fill="#eaf6ff"/><g><path d="m82 456.819v-444.12c0-2.871 2.328-5.199 5.199-5.199h-42.089c-2.871 0-5.199 2.328-5.199 5.199v444.119c0 2.871 2.328 5.199 5.199 5.199h42.089c-2.871.001-5.199-2.327-5.199-5.198z" fill="#d8ecfe"/></g><g><path d="m127.716 7.5h-82.606c-2.871 0-5.199 2.328-5.199 5.199v33.435h87.805z" fill="#c4e2ff"/></g><g><path d="m39.911 12.699v33.435h42.089v-33.435c0-2.871 2.328-5.199 5.199-5.199h-42.089c-2.871 0-5.199 2.328-5.199 5.199z" fill="#b3dafe"/></g><g><path d="m264.3 7.5v111.3c0 2.871 2.328 5.199 5.199 5.199h111.3z" fill="#c4e2ff"/></g><g><path d="m298 118.8v-77.6l-33.7-33.7v111.3c0 2.871 2.328 5.199 5.199 5.199h33.7c-2.871 0-5.199-2.328-5.199-5.199z" fill="#b3dafe"/></g><g><g><circle cx="344.794" cy="377.205" fill="#ffe177" r="97.024"/></g><g><path d="m292.86 377.205c0-45.817 31.76-84.211 74.464-94.382-7.231-1.721-14.772-2.643-22.531-2.643-53.585 0-97.024 43.439-97.024 97.025 0 53.585 43.439 97.024 97.024 97.024 7.758 0 15.299-.922 22.531-2.643-42.704-10.17-74.464-48.564-74.464-94.381z" fill="#ffc344"/></g></g><g><path d="m182.495 323.137h-78.474c-2.761 0-5-2.239-5-5v-58.866c0-2.761 2.239-5 5-5h78.474c2.761 0 5 2.239 5 5v58.866c0 2.762-2.238 5-5 5z" fill="#00f2a6"/></g><g><path d="m133 318.137v-58.866c0-2.761 2.239-5 5-5h-33.979c-2.761 0-5 2.239-5 5v58.866c0 2.761 2.239 5 5 5h33.979c-2.761 0-5-2.238-5-5z" fill="#05e39c"/></g><g><path d="m388.299 249.624v-29.624c0-4.143-3.358-7.5-7.5-7.5s-7.5 3.357-7.5 7.5v56.658c-9.207-2.61-18.792-3.979-28.506-3.979-14.671 0-28.643 3.044-41.325 8.524h-85.078c-4.142 0-7.5 3.357-7.5 7.5s3.358 7.5 7.5 7.5h60.419c-6.938 5.662-13.135 12.197-18.427 19.434h-41.992c-4.142 0-7.5 3.357-7.5 7.5s3.358 7.5 7.5 7.5h32.845c-3.078 6.158-5.564 12.66-7.386 19.433h-144.828c-4.142 0-7.5 3.357-7.5 7.5s3.358 7.5 7.5 7.5h141.956c-.463 3.983-.708 8.03-.708 12.135 0 2.454.092 4.887.259 7.299h-64.606c-4.142 0-7.5 3.357-7.5 7.5s3.358 7.5 7.5 7.5h66.75c4.705 21.563 16.078 40.664 31.852 55.014h-142.524c-4.142 0-7.5 3.357-7.5 7.5s3.358 7.5 7.5 7.5h114.68c24.599 26.132 59.478 42.482 98.113 42.482 74.327 0 134.795-60.469 134.795-134.796.001-59.108-38.246-109.443-91.289-127.58zm-43.506 247.376c-28.949 0-55.529-10.326-76.26-27.482h27.279c14.62 7.788 31.292 12.211 48.981 12.211 49.308 0 92.35-34.993 102.345-83.206.841-4.056-1.766-8.025-5.821-8.866-4.052-.839-8.025 1.766-8.866 5.821-8.559 41.285-45.424 71.251-87.657 71.251-49.364 0-89.524-40.16-89.524-89.523 0-49.364 40.161-89.525 89.524-89.525 21.458 0 42.211 7.708 58.437 21.704 16.061 13.854 26.711 32.954 29.99 53.782.645 4.092 4.49 6.882 8.575 6.243 4.092-.645 6.887-4.483 6.243-8.575-3.83-24.332-16.263-46.639-35.01-62.809-7.503-6.473-15.845-11.772-24.729-15.839v-16.575c44.604 17.45 76.29 60.881 76.29 111.593-.001 66.055-53.741 119.795-119.797 119.795z"/><path d="m97 454.518h-49.589v-400.884h80.304c4.142 0 7.5-3.357 7.5-7.5v-31.134h121.585v103.8c0 7.002 5.697 12.699 12.699 12.699h103.8v53.501c0 4.143 3.358 7.5 7.5 7.5s7.5-3.357 7.5-7.5v-61.001c0-1.989-.79-3.896-2.197-5.304l-116.498-116.499c-1.407-1.406-3.314-2.196-5.304-2.196h-219.19c-7.002 0-12.699 5.697-12.699 12.699v444.119c0 7.002 5.697 12.699 12.699 12.699h51.89c4.142 0 7.5-3.357 7.5-7.5s-3.358-7.499-7.5-7.499zm23.215-415.884h-72.804v-23.634h72.804zm151.585 77.865v-90.893l90.893 90.893z"/><path d="m224.128 92.97h-125.107c-4.142 0-7.5 3.357-7.5 7.5s3.358 7.5 7.5 7.5h125.107c4.142 0 7.5-3.357 7.5-7.5s-3.357-7.5-7.5-7.5z"/><path d="m224.128 127.402h-68.866c-4.142 0-7.5 3.357-7.5 7.5s3.358 7.5 7.5 7.5h68.866c4.142 0 7.5-3.357 7.5-7.5s-3.357-7.5-7.5-7.5z"/><path d="m99.021 142.402h27.547c4.142 0 7.5-3.357 7.5-7.5s-3.358-7.5-7.5-7.5h-27.547c-4.142 0-7.5 3.357-7.5 7.5s3.358 7.5 7.5 7.5z"/><path d="m319.394 161.836h-220.373c-4.142 0-7.5 3.357-7.5 7.5s3.358 7.5 7.5 7.5h220.373c4.142 0 7.5-3.357 7.5-7.5s-3.358-7.5-7.5-7.5z"/><path d="m319.394 196.27h-47.059c-4.142 0-7.5 3.357-7.5 7.5s3.358 7.5 7.5 7.5h47.059c4.142 0 7.5-3.357 7.5-7.5s-3.358-7.5-7.5-7.5z"/><path d="m249.993 203.77c0-4.143-3.358-7.5-7.5-7.5h-143.472c-4.142 0-7.5 3.357-7.5 7.5s3.358 7.5 7.5 7.5h143.472c4.142 0 7.5-3.358 7.5-7.5z"/><path d="m218.39 261.771h101.004c4.142 0 7.5-3.357 7.5-7.5s-3.358-7.5-7.5-7.5h-101.004c-4.142 0-7.5 3.357-7.5 7.5s3.358 7.5 7.5 7.5z"/><path d="m146.08 399.504c4.142 0 7.5-3.357 7.5-7.5s-3.358-7.5-7.5-7.5h-47.059c-4.142 0-7.5 3.357-7.5 7.5s3.358 7.5 7.5 7.5z"/><path d="m349.293 355.793h-9c-1.657 0-3 1.343-3 3v68.263c0 1.657 1.343 3 3 3h9c1.657 0 3-1.343 3-3v-68.263c0-1.657-1.343-3-3-3z"/><path d="m349.293 325.935h-9c-1.657 0-3 1.343-3 3v9c0 1.657 1.343 3 3 3h9c1.657 0 3-1.343 3-3v-9c0-1.657-1.343-3-3-3z"/><path d="m104.021 246.771c-6.893 0-12.5 5.607-12.5 12.5v58.866c0 6.893 5.607 12.5 12.5 12.5h78.474c6.893 0 12.5-5.607 12.5-12.5v-58.866c0-6.893-5.607-12.5-12.5-12.5zm75.974 68.867h-73.474v-53.866h73.474z"/></g></g></svg>